<svg width="36" height="32" viewBox="0 0 36 32" fill="none" xmlns="http://www.w3.org/2000/svg">
<path d="M18 29.5C27.9422 29.5 36 22.9539 36 14.875C36 6.79609 27.9422 0.25 18 0.25C8.0578 0.25 -9.10991e-06 6.79609 -9.10991e-06 14.875C-9.10991e-06 18.0461 1.24452 20.9781 3.3539 23.3758C3.2203 25.0984 2.55233 26.6312 1.84921 27.7984C1.46249 28.4453 1.06874 28.9656 0.78046 29.3172C0.632803 29.493 0.520303 29.6266 0.435928 29.718C0.393741 29.7602 0.365616 29.7953 0.344522 29.8164L0.323428 29.8375C-9.10833e-06 30.1609 -0.0914154 30.6391 0.0843659 31.0609C0.260147 31.4828 0.66796 31.757 1.12499 31.757C3.14296 31.757 5.17499 31.1312 6.86249 30.4C8.47265 29.6969 9.84374 28.8602 10.6805 28.2484C12.9164 29.057 15.3914 29.507 18 29.507V29.5ZM8.99999 17.125C7.75546 17.125 6.74999 16.1195 6.74999 14.875C6.74999 13.6305 7.75546 12.625 8.99999 12.625C10.2445 12.625 11.25 13.6305 11.25 14.875C11.25 16.1195 10.2445 17.125 8.99999 17.125ZM18 17.125C16.7555 17.125 15.75 16.1195 15.75 14.875C15.75 13.6305 16.7555 12.625 18 12.625C19.2445 12.625 20.25 13.6305 20.25 14.875C20.25 16.1195 19.2445 17.125 18 17.125ZM29.25 14.875C29.25 16.1195 28.2445 17.125 27 17.125C25.7555 17.125 24.75 16.1195 24.75 14.875C24.75 13.6305 25.7555 12.625 27 12.625C28.2445 12.625 29.25 13.6305 29.25 14.875Z" fill="#56FDAB"/>
</svg>
